<?xml version="1.0" standalone="no"?>
<!DOCTYPE svg PUBLIC "-//W3C//DTD SVG 20010904//EN"
 "http://www.w3.org/TR/2001/REC-SVG-20010904/DTD/svg10.dtd">
<svg version="1.0" xmlns="http://www.w3.org/2000/svg"
 width="692.000000pt" height="938.000000pt" viewBox="0 0 692.000000 938.000000"
 preserveAspectRatio="xMidYMid meet">

<g transform="translate(0.000000,938.000000) scale(0.100000,-0.100000)"
fill="#000000" stroke="none">
<path d="M4082 8779 c-51 -26 -109 -97 -118 -146 -4 -19 -4 -56 0 -82 l6 -49
-47 -35 c-47 -35 -49 -35 -68 -17 -37 33 -129 87 -195 113 -260 103 -621 72
-922 -79 -156 -78 -266 -160 -398 -296 l-75 -77 -135 -45 c-374 -124 -758
-323 -933 -485 -107 -99 -189 -237 -218 -366 -27 -119 -11 -605 27 -835 33
-198 116 -434 178 -507 39 -46 105 -74 180 -77 58 -2 66 -5 91 -34 31 -37 92
-57 147 -48 21 3 75 24 119 46 45 22 86 40 91 40 6 0 -12 -17 -39 -39 -26 -21
-61 -52 -77 -69 -16 -17 -43 -34 -60 -38 -63 -13 -121 -77 -139 -155 -33 -137
-27 -254 17 -307 23 -27 40 -98 51 -206 3 -32 19 -89 35 -127 17 -37 30 -74
30 -83 0 -32 63 -214 102 -292 74 -151 186 -248 318 -278 84 -19 139 -20 206
-2 51 13 51 13 105 -21 60 -38 155 -70 234 -79 l52 -6 -67 -132 c-141 -272
-187 -510 -145 -751 9 -49 27 -116 41 -151 l25 -63 -43 -40 c-39 -37 -48 -41
-98 -41 -81 0 -149 -36 -232 -121 -160 -166 -246 -399 -235 -639 5 -120 26
-212 66 -290 l27 -53 -30 -28 c-29 -26 -31 -32 -30 -96 1 -50 11 -97 38 -177
50 -148 88 -217 136 -247 29 -17 40 -31 40 -49 0 -40 38 -167 66 -223 88 -175
211 -278 315 -264 135 18 170 168 149 637 -11 242 -21 324 -44 371 -14 29 -14
32 18 74 39 50 88 180 119 310 18 77 21 121 21 305 0 131 -4 230 -11 253 -6
20 -10 37 -8 37 3 0 44 -26 92 -57 285 -184 587 -275 916 -277 l158 -1 -7 -60
c-11 -95 -7 -253 10 -331 35 -166 122 -392 194 -507 21 -34 44 -88 51 -119 7
-31 33 -99 58 -150 25 -51 54 -115 65 -143 30 -77 68 -131 110 -157 29 -18 41
-35 54 -73 9 -27 37 -90 63 -140 58 -114 181 -244 248 -264 83 -23 156 19 188
108 22 63 31 376 16 568 -20 260 -48 373 -97 395 -19 9 -21 14 -12 42 16 50
22 313 9 417 -35 298 -169 537 -364 649 -62 35 -49 45 64 54 195 14 384 106
411 201 11 37 25 51 98 105 166 123 373 355 416 467 29 75 26 175 -8 243 -32
64 -97 152 -162 220 -44 46 -45 48 -39 98 8 67 -18 117 -119 229 -43 48 -77
88 -75 89 1 1 36 -7 77 -18 114 -29 265 -33 509 -13 271 22 376 17 601 -30
205 -42 298 -46 498 -20 113 15 132 21 132 36 0 11 -6 16 -17 14 -10 -2 -76
-11 -147 -21 -165 -21 -268 -15 -466 27 -143 31 -169 34 -335 34 -99 0 -262
-6 -361 -13 -208 -16 -313 -8 -442 33 -75 24 -118 48 -260 150 -88 63 -128 73
-206 53 -33 -9 -62 -15 -64 -13 -1 1 18 17 43 36 25 19 62 47 83 63 84 64 238
123 384 146 48 8 125 11 200 7 155 -6 234 -29 474 -135 265 -117 269 -118 459
-113 403 10 398 10 527 -31 64 -21 119 -38 122 -38 3 0 6 8 6 18 0 13 -27 25
-127 54 -167 49 -226 54 -403 33 -226 -26 -308 -10 -585 115 -183 83 -281 114
-405 130 -179 23 -417 -17 -571 -95 -50 -26 -187 -124 -237 -169 l-42 -39 -78
36 c-42 19 -117 47 -167 63 -85 26 -93 31 -162 102 -82 83 -89 106 -52 171 19
34 26 38 112 60 338 87 677 245 822 382 37 35 68 54 106 65 127 38 261 126
357 236 56 64 140 195 160 248 83 224 96 296 95 520 0 144 -4 189 -21 252 -36
132 -87 190 -171 194 -44 2 -44 2 -134 120 -461 606 -866 986 -1278 1199 -113
58 -123 65 -151 115 l-30 52 34 29 c36 30 53 35 64 18 15 -24 90 -49 152 -49
134 0 225 92 224 228 -1 84 -35 158 -94 198 -36 26 -51 29 -127 32 -72 3 -93
0 -129 -19z m218 -31 c85 -44 124 -170 81 -263 -60 -130 -215 -153 -324 -47
-81 79 -83 196 -6 273 62 62 168 78 249 37z m-720 -193 c102 -32 177 -72 248
-133 54 -45 139 -148 130 -157 -2 -3 -44 8 -92 25 -278 94 -644 116 -931 56
-137 -29 -326 -87 -467 -145 -54 -22 -98 -38 -98 -36 0 6 59 63 118 113 177
152 420 262 667 303 28 4 115 6 195 5 124 -3 157 -8 230 -31z m394 -152 c-29
-25 -40 -30 -51 -22 -21 18 -15 32 25 61 34 25 38 26 50 10 12 -15 8 -21 -24
-49z m-483 -68 c192 -22 330 -58 502 -129 432 -179 905 -604 1401 -1258 75
-100 87 -120 76 -133 -8 -10 -13 -41 -12 -80 1 -63 0 -65 -23 -65 -14 0 -25 6
-25 13 0 34 -158 235 -358 455 -177 194 -531 550 -629 631 -289 240 -529 315
-905 282 l-136 -12 -42 26 c-91 57 -213 99 -337 116 -83 11 -401 7 -483 -6
-44 -7 127 58 240 91 262 77 487 98 731 69z m-423 -199 c69 -15 77 -19 68 -35
-8 -13 -626 -3 -640 10 -16 14 0 21 86 35 101 16 391 10 486 -10z m-613 -35
c8 -26 55 -41 134 -42 l66 -1 -60 -14 c-381 -92 -1004 -383 -1427 -666 -65
-43 -120 -78 -123 -78 -11 0 44 97 90 158 165 220 615 461 1160 622 154 45
152 45 160 21z m822 -41 c43 -22 92 -51 108 -65 l30 -24 -60 24 c-33 13 -91
32 -130 41 -38 10 -71 19 -73 20 -8 5 24 44 35 44 6 0 47 -18 90 -40z m-155
-36 c192 -36 391 -126 469 -212 126 -138 188 -333 176 -557 -9 -166 -50 -279
-126 -348 -48 -44 -107 -61 -251 -77 -593 -63 -1371 -328 -2085 -713 -88 -47
-163 -83 -167 -79 -3 4 -22 59 -42 122 -63 204 -90 432 -91 765 0 121 3 240 8
265 7 44 11 47 115 119 328 226 715 428 1124 585 225 86 360 122 563 150 51 7
225 -4 307 -20z m809 -106 c332 -239 570 -426 565 -443 -2 -5 -32 -10 -68 -10
-81 0 -136 27 -333 165 -77 54 -169 114 -205 133 -71 38 -186 77 -229 77 -16
0 -37 10 -51 25 -13 14 -28 25 -32 25 -5 0 -39 26 -75 58 l-65 57 39 6 c21 3
100 7 175 8 l136 1 143 -102z m79 55 c95 -31 216 -96 322 -175 134 -98 551
-519 803 -808 144 -165 135 -150 84 -149 -43 0 -46 3 -104 76 -92 115 -350
378 -506 514 -213 186 -458 377 -722 562 -22 16 -21 16 13 10 19 -3 69 -16
110 -30z m-219 -202 c30 -12 82 -37 114 -56 63 -38 259 -176 253 -178 -2 -1
-50 -1 -108 1 l-105 3 -135 130 c-146 141 -147 148 -19 100z m189 -317 c175
-183 242 -310 244 -459 2 -181 -100 -284 -374 -380 -58 -20 -274 -85 -480
-145 -399 -116 -514 -153 -678 -219 -95 -38 -107 -41 -170 -35 -65 6 -70 4
-182 -46 -246 -112 -278 -133 -233 -159 10 -5 16 -12 13 -14 -11 -11 -437
-220 -474 -233 -57 -21 -119 -18 -150 7 -35 27 -33 35 12 50 57 18 134 59 280
147 442 268 925 448 1425 532 206 34 211 35 310 67 179 57 302 188 353 373 26
95 24 287 -4 402 -28 113 -73 228 -118 302 l-36 60 99 -91 c54 -50 127 -122
163 -159z m193 40 c190 -42 379 -179 507 -368 137 -203 234 -550 259 -927 20
-306 -32 -491 -180 -639 -86 -86 -180 -147 -364 -236 -463 -224 -1087 -339
-1595 -294 -131 12 -297 38 -322 51 -31 16 -118 162 -158 265 -22 56 -53 156
-69 221 -30 120 -66 312 -60 317 2 2 42 24 89 49 126 69 119 61 86 96 l-29 30
79 36 c302 139 484 203 947 336 557 160 699 215 793 307 26 26 59 72 73 102
23 48 26 68 26 155 -1 87 -5 110 -31 175 -36 90 -90 171 -173 262 -33 36 -61
69 -61 72 0 12 112 6 183 -10z m-343 -125 c31 -105 38 -291 16 -391 -44 -197
-158 -323 -347 -383 -43 -13 -169 -40 -281 -60 -361 -63 -618 -137 -918 -265
-173 -73 -410 -195 -555 -285 -126 -78 -212 -122 -274 -141 -67 -20 -70 -19
-64 25 7 50 -20 107 -60 128 -35 18 -106 12 -140 -12 -12 -8 -27 -15 -34 -15
-101 0 430 278 892 467 212 87 675 241 675 225 0 -4 -7 -16 -15 -26 -19 -26
-19 -86 0 -113 20 -29 78 -47 123 -38 20 4 71 18 112 31 41 14 136 34 210 45
156 23 197 37 206 74 12 48 -3 98 -38 128 -19 16 -26 27 -18 27 58 1 214 23
254 36 142 47 226 218 228 464 1 63 -2 131 -6 150 -11 58 10 13 34 -71z m967
-164 c152 -150 186 -190 208 -238 14 -32 25 -61 25 -64 0 -14 -73 64 -148 157
-165 205 -217 263 -288 319 -40 33 -70 62 -67 65 10 10 85 -56 270 -239z
m-271 183 c71 -47 156 -135 274 -283 57 -71 140 -166 183 -210 79 -80 80 -80
118 -196 96 -298 155 -694 131 -884 -7 -49 -14 -90 -16 -92 -2 -2 -26 8 -54
24 -71 40 -93 29 -144 -67 -77 -146 -207 -285 -333 -355 -105 -59 -142 -91
-201 -176 -40 -57 -68 -86 -92 -96 -112 -47 -518 -137 -842 -188 -507 -78
-757 -50 -968 111 -34 26 -60 49 -58 51 2 2 48 -4 102 -12 140 -23 480 -31
656 -16 402 35 758 124 1081 271 313 143 459 260 541 435 61 129 71 180 71
380 0 184 -9 265 -51 486 -68 354 -195 607 -389 772 -94 80 -91 77 -74 77 9 0
38 -15 65 -32z m587 -523 c33 -39 36 -47 25 -65 -7 -11 -16 -20 -19 -20 -6 0
-49 109 -49 124 0 11 5 6 43 -39z m499 -65 c35 -27 67 -99 84 -187 19 -101 18
-326 -2 -443 -24 -136 -30 -147 -38 -65 -12 111 -40 226 -105 428 -34 103 -61
200 -61 215 0 66 68 95 122 52z m-339 -20 c19 -16 46 -47 62 -70 l28 -40 -21
-23 c-44 -47 -19 -190 54 -315 14 -24 24 -44 22 -45 -1 -1 -16 -9 -33 -17 -44
-23 -65 -72 -65 -154 0 -64 -23 -180 -40 -199 -4 -4 -10 45 -13 110 -7 144
-36 318 -88 523 -21 85 -39 165 -39 176 0 24 61 84 85 84 8 0 29 -13 48 -30z
m-1973 -33 c31 -16 54 -61 46 -92 -7 -29 -30 -36 -206 -64 -69 -11 -162 -31
-208 -46 -109 -34 -161 -32 -181 9 -12 26 -12 33 0 55 45 80 459 184 549 138z
m2229 -263 c74 -226 94 -333 89 -474 -3 -102 -7 -121 -32 -170 -43 -84 -134
-198 -206 -257 -58 -48 -237 -149 -247 -140 -9 9 65 107 88 117 106 45 275
340 287 502 6 88 -7 136 -79 283 -67 137 -90 219 -71 259 9 21 19 26 59 29 26
2 51 4 55 5 4 1 30 -68 57 -154z m-76 -277 c26 -54 31 -126 13 -198 -27 -106
-120 -280 -188 -352 -33 -34 -57 -53 -53 -42 4 11 14 49 22 85 9 36 30 106 49
155 47 129 52 149 58 254 6 102 20 131 61 131 16 0 28 -10 38 -33z m-2963 -40
c-172 -78 -210 -97 -210 -106 0 -5 12 -18 28 -29 18 -14 24 -24 17 -30 -5 -6
-67 -42 -136 -80 l-127 -71 -37 19 -37 19 74 37 c40 20 86 46 102 57 l29 20
-23 19 -22 18 118 56 c175 83 176 83 214 83 34 0 34 -1 10 -12z m-1164 -203
c37 -18 47 -41 42 -95 -2 -28 -8 -35 -28 -37 -34 -4 -109 36 -134 71 -21 28
-21 28 -1 40 17 10 71 34 83 36 2 1 19 -6 38 -15z m841 -171 c7 -37 10 -69 9
-71 -2 -2 -13 12 -25 31 -11 18 -30 42 -41 52 l-20 18 27 19 c16 10 30 18 33
18 3 0 11 -30 17 -67z m-143 36 c16 -13 31 -40 40 -72 18 -67 29 -204 21 -261
-6 -38 -11 -46 -38 -55 -73 -26 -184 -4 -208 41 -17 32 -24 199 -9 242 14 43
64 104 94 116 36 15 72 11 100 -11z m121 -134 c15 -30 30 -75 32 -99 5 -38 1
-47 -26 -77 l-30 -34 -1 95 c0 52 -4 112 -9 133 -13 53 1 46 34 -18z m-358
-40 c-1 -41 -3 -75 -3 -75 -1 0 -18 16 -39 37 l-36 36 37 39 c21 21 39 38 40
38 1 0 1 -34 1 -75z m3376 53 c23 -13 43 -24 45 -24 8 -4 -52 -134 -82 -179
-74 -113 -220 -228 -401 -317 -103 -52 -225 -101 -231 -95 -11 10 91 129 132
154 155 96 196 127 256 187 72 73 124 145 170 238 34 66 46 70 111 36z m-3441
-115 c14 -16 38 -51 52 -80 29 -59 73 -96 131 -112 95 -26 177 -1 256 78 l57
58 32 -101 c18 -56 47 -132 65 -171 38 -78 39 -74 -45 -106 -99 -37 -164 -51
-276 -56 -123 -6 -202 4 -327 43 -134 42 -164 87 -154 228 8 101 30 167 72
211 43 46 98 49 137 8z m698 -501 c40 -51 41 -54 23 -68 -180 -143 -419 -235
-614 -238 -88 -1 -98 1 -137 27 -49 32 -81 88 -89 157 l-6 48 54 -26 c50 -25
64 -27 179 -27 99 0 142 5 205 23 84 24 294 122 316 148 16 20 20 17 69 -44z
m-695 3 c84 -23 120 -28 225 -28 109 0 148 5 245 29 44 11 -58 -37 -127 -60
-153 -49 -324 -54 -408 -11 -34 17 -80 71 -80 92 0 17 -2 18 145 -22z m791
-111 c16 -14 48 -39 71 -56 35 -26 43 -38 49 -74 9 -63 -2 -106 -42 -161 -71
-98 -95 -139 -112 -188 -9 -27 -33 -81 -52 -120 -55 -110 -135 -155 -276 -155
-164 0 -299 90 -387 258 -37 70 -80 190 -92 254 l-7 38 38 -16 c55 -23 218
-13 344 21 116 31 296 118 370 179 30 24 58 45 61 45 3 1 19 -11 35 -25z
m1528 -104 c-21 -60 -9 -95 52 -153 30 -28 52 -52 50 -54 -2 -2 -55 5 -117 16
-138 25 -295 41 -398 41 l-76 1 40 35 c93 83 97 85 268 119 214 43 198 43 181
-5z m-1304 -36 c43 -16 53 -23 31 -19 -18 3 -49 5 -67 5 -27 0 -34 4 -34 20 0
11 1 20 3 20 1 0 31 -12 67 -26z m820 -63 c-59 -54 -71 -60 -132 -70 -55 -9
-172 -46 -239 -75 -11 -5 -33 8 -70 39 -30 26 -88 63 -129 83 l-76 37 171 -3
c137 -2 202 2 335 21 91 14 174 25 185 26 14 1 0 -17 -45 -58z m-715 -6 c82
-21 192 -75 243 -120 23 -20 42 -40 42 -44 0 -4 -32 -30 -72 -57 -91 -62 -215
-187 -293 -294 -104 -143 -90 -133 -168 -120 -84 13 -149 34 -205 67 l-43 24
50 47 c50 47 65 74 116 210 16 43 50 103 82 145 30 40 59 91 66 115 l11 42 56
0 c31 0 83 -7 115 -15z m1012 -95 c141 -19 265 -42 256 -50 -4 -4 -30 -15 -58
-25 -79 -28 -262 -122 -350 -179 -120 -78 -219 -162 -330 -278 -104 -108 -142
-160 -325 -439 -139 -213 -184 -251 -294 -251 -66 0 -96 31 -96 100 0 155 83
442 177 612 92 166 243 354 326 407 55 35 171 79 252 96 83 18 328 22 442 7z
m417 -81 c83 -24 256 -98 256 -109 0 -4 -17 -19 -37 -33 -126 -88 -168 -238
-104 -374 18 -37 57 -90 100 -136 39 -41 71 -77 71 -80 0 -14 -205 -180 -233
-188 -46 -13 -164 -113 -199 -169 -19 -31 -54 -64 -101 -96 -107 -73 -207
-173 -207 -206 0 -23 -13 -36 -84 -83 -105 -70 -189 -157 -224 -232 -36 -79
-37 -199 -3 -287 22 -56 93 -141 146 -173 17 -11 13 -12 -30 -7 -319 36 -604
150 -850 342 -237 184 -302 305 -312 587 -6 158 8 248 59 395 68 191 226 453
357 591 l71 74 -64 -96 c-118 -179 -196 -369 -235 -573 -37 -188 -25 -287 36
-315 34 -16 102 -14 155 5 89 30 122 70 350 424 214 333 536 590 911 726 51
18 94 33 96 34 2 0 36 -9 75 -21z m593 -115 c66 -44 242 -217 327 -320 95
-115 101 -206 9 -124 -100 88 -187 116 -281 91 -51 -14 -166 -92 -261 -178
l-69 -63 -70 75 c-82 86 -121 156 -129 230 -11 102 69 216 199 285 81 43 104
50 165 46 42 -2 65 -11 110 -42z m230 -410 c70 -40 228 -194 307 -298 89 -118
111 -222 67 -322 -25 -55 -105 -165 -175 -239 -39 -41 -46 -45 -41 -25 4 14 9
82 12 152 4 97 1 144 -12 203 -46 206 -199 389 -386 459 l-61 23 28 20 c97 68
176 76 261 27z m-190 -125 c103 -51 209 -160 261 -269 74 -154 89 -318 47
-495 -13 -54 -24 -77 -49 -98 -48 -44 -158 -127 -168 -127 -4 0 12 28 37 62
122 168 111 273 -51 488 -104 139 -207 231 -314 283 l-87 43 90 78 c85 73 93
78 128 73 20 -3 68 -20 106 -38z m-246 -191 c67 -33 103 -61 175 -132 93 -93
189 -221 224 -298 41 -90 21 -192 -58 -291 l-30 -37 -32 57 c-65 115 -171 251
-311 398 -42 44 -90 95 -105 114 -15 19 -50 51 -76 72 l-48 38 72 60 c39 34
79 61 89 61 9 0 54 -19 100 -42z m-253 -130 c46 -33 272 -276 366 -394 99
-125 176 -253 183 -303 3 -24 -1 -49 -10 -68 -33 -64 -196 -137 -331 -150
l-70 -6 42 38 c23 20 42 45 42 54 0 10 -44 71 -98 137 l-98 119 -44 -3 c-111
-6 -109 -7 -145 28 -19 18 -40 49 -46 67 -9 28 -8 39 10 69 33 55 27 85 -24
142 -69 77 -61 112 50 213 96 87 118 95 173 57z m-251 -290 c23 -26 43 -52 43
-59 0 -20 -31 -64 -60 -84 -16 -11 -74 -55 -128 -97 -74 -58 -102 -74 -110
-65 -5 6 -19 43 -32 81 -21 64 -21 71 -7 101 15 32 103 113 187 173 40 29 45
31 54 15 5 -10 29 -39 53 -65z m19 -221 l21 -42 -78 -1 -78 -1 52 43 c29 24
54 43 57 43 3 0 14 -19 26 -42z m-336 -28 c6 -22 13 -46 16 -53 3 -8 -16 -23
-50 -40 -74 -36 -151 -108 -184 -170 -34 -65 -38 -180 -8 -236 48 -92 104
-122 243 -129 88 -5 101 -8 93 -21 -7 -12 -30 -15 -102 -15 -81 0 -99 4 -144
27 -69 36 -110 72 -140 123 -34 59 -45 99 -45 170 -1 124 65 228 210 330 42
30 81 55 88 55 7 0 17 -18 23 -41z m387 -70 c24 -12 48 -30 54 -41 9 -18 4
-27 -38 -70 -26 -27 -68 -60 -93 -73 -59 -31 -107 -77 -116 -109 -3 -15 1 -44
11 -70 l18 -46 -42 -54 c-40 -52 -46 -55 -97 -62 -181 -22 -294 57 -294 204 0
74 19 120 72 178 51 56 159 118 188 109 13 -4 33 1 54 15 70 43 214 53 283 19z
m278 -105 c47 -58 85 -110 85 -115 0 -11 -98 -92 -172 -142 -78 -54 -97 -50
-170 37 -32 38 -58 78 -58 90 0 13 40 61 107 128 59 60 111 108 115 108 4 0
46 -48 93 -106z m-1894 -49 c53 -52 88 -95 80 -95 -38 0 -85 22 -143 67 -34
26 -69 53 -78 60 -13 10 -12 14 9 37 14 14 27 26 31 26 3 0 49 -43 101 -95z
m-200 14 c19 -7 59 -30 89 -53 85 -64 108 -76 163 -87 29 -5 57 -16 64 -25 29
-40 35 -390 9 -539 -9 -49 -29 -130 -46 -181 -64 -192 -118 -233 -314 -242
-193 -8 -316 26 -367 104 -35 53 -67 152 -79 249 -39 307 144 691 369 771 45
16 69 17 112 3z m1789 -184 c16 -10 12 -25 -8 -25 -10 0 -35 -9 -57 -20 -21
-11 -39 -19 -40 -17 -34 69 -32 89 12 127 l36 32 24 -45 c12 -25 27 -48 33
-52z m77 -85 c40 -36 73 -38 121 -8 l35 22 51 -27 c153 -80 285 -268 336 -479
28 -114 41 -311 30 -444 -14 -177 -49 -231 -177 -276 -59 -20 -87 -23 -203
-23 -116 1 -143 4 -192 23 -32 13 -69 37 -86 56 -69 79 -194 386 -227 557 -32
171 -11 371 50 475 49 83 141 153 204 154 13 0 39 -13 58 -30z m-2182 -860
c128 -46 345 -48 450 -4 l36 15 15 -36 c17 -42 36 -177 26 -187 -14 -14 -188
-58 -271 -69 -82 -11 -238 -8 -308 7 -30 6 -35 12 -54 73 -11 36 -23 94 -26
129 -5 52 -3 66 13 83 20 23 27 22 119 -11z m538 -317 c8 -80 9 -373 2 -373
-3 0 -33 21 -67 46 -103 76 -202 118 -386 164 -54 14 -104 58 -131 115 -12 25
-21 46 -21 48 0 2 69 1 153 -1 162 -4 270 9 378 47 30 11 57 20 60 20 3 1 9
-29 12 -66z m2260 20 c16 -31 37 -143 37 -189 -1 -24 -12 -37 -66 -78 -86 -62
-159 -95 -238 -107 -82 -11 -205 4 -264 32 -40 20 -48 30 -93 123 -26 56 -51
114 -55 130 -6 26 -5 28 12 21 98 -42 132 -49 249 -49 105 0 131 3 205 28 95
32 129 52 150 90 18 34 46 33 63 -1z m-2621 -242 c117 -30 272 -116 342 -189
26 -28 28 -34 21 -84 -20 -155 -105 -211 -219 -144 -98 57 -207 237 -234 384
-11 61 -15 60 90 33z m2677 -188 c0 -68 -1 -123 -4 -123 -3 0 -17 7 -30 16
-37 24 -137 28 -258 10 -176 -27 -238 -3 -296 111 l-21 42 43 -16 c31 -13 75
-17 172 -17 l130 -1 75 37 c41 21 98 55 125 76 l50 40 6 -27 c4 -14 7 -81 8
-148z m-100 -124 c24 -5 57 -19 74 -31 l30 -21 -5 -131 c-5 -144 -18 -189 -63
-224 -58 -46 -126 -21 -219 79 -61 66 -130 181 -161 269 l-14 40 57 1 c31 0
93 6 137 14 102 16 111 17 164 4z"/>
<path d="M1785 7186 c-72 -23 -189 -84 -232 -121 -49 -42 -67 -90 -51 -136 21
-62 67 -64 197 -8 246 106 258 115 248 192 -10 77 -68 103 -162 73z m123 -58
c11 -23 11 -33 0 -55 -11 -22 -43 -40 -172 -96 -135 -58 -163 -67 -183 -58
-32 14 -31 60 2 100 49 58 232 143 300 138 32 -2 42 -7 53 -29z"/>
<path d="M3880 6306 c-105 -30 -191 -102 -236 -199 -25 -54 -29 -73 -28 -152
0 -68 5 -101 21 -135 87 -191 305 -270 490 -180 102 50 169 142 193 265 26
134 -47 290 -170 362 -82 49 -183 63 -270 39z m199 -45 c95 -36 161 -106 194
-205 50 -148 -18 -309 -164 -384 -60 -32 -69 -34 -149 -30 -100 4 -154 26
-218 89 -173 172 -97 468 138 540 48 14 148 10 199 -10z"/>
<path d="M2974 6072 c-95 -33 -165 -99 -211 -199 -22 -48 -27 -72 -26 -138 1
-93 18 -146 68 -215 72 -98 178 -145 309 -138 87 5 137 24 207 79 71 56 129
179 129 275 0 101 -67 232 -148 288 -95 65 -223 84 -328 48z m249 -45 c65 -30
127 -90 158 -154 33 -68 37 -181 10 -253 -29 -76 -89 -143 -159 -176 -81 -40
-192 -41 -273 -3 -110 52 -177 147 -187 264 -9 122 38 224 135 292 98 67 211
78 316 30z"/>
</g>
</svg>
